<svg width="25" height="26" viewBox="0 0 25 26" fill="none" xmlns="http://www.w3.org/2000/svg">
<path d="M2.975 18.9687C2.97388 20.0305 3.38995 21.0502 4.13355 21.8082C4.25504 21.9322 4.39977 22.0311 4.55946 22.0992C4.7192 22.1673 4.89078 22.2033 5.06442 22.2051C5.23806 22.2069 5.41035 22.1744 5.57146 22.1097C5.73257 22.0449 5.87935 21.949 6.0034 21.8275C6.12745 21.706 6.22636 21.5612 6.29447 21.4015C6.36259 21.2417 6.39857 21.0702 6.40037 20.8965C6.40217 20.7229 6.36975 20.5506 6.30497 20.3895C6.24018 20.2284 6.1443 20.0816 6.02279 19.9575L6.02275 19.9575C5.82805 19.7589 5.69632 19.5072 5.6441 19.234C5.59187 18.9608 5.62147 18.6782 5.72918 18.4218C5.83688 18.1653 6.01791 17.9464 6.24954 17.7924C6.48118 17.6384 6.75313 17.5563 7.03125 17.5562H19.3813V20.3813H16.7969C16.4463 20.3813 16.1101 20.5205 15.8622 20.7684C15.6143 21.0163 15.475 21.3525 15.475 21.7031C15.475 22.0537 15.6143 22.3899 15.8622 22.6378C16.1101 22.8857 16.4463 23.025 16.7969 23.025H20.7031C21.0537 23.025 21.3899 22.8857 21.6378 22.6378C21.8857 22.3899 22.025 22.0537 22.025 21.7031V2.17188C22.025 1.82129 21.8857 1.48507 21.6378 1.23717C21.3899 0.989269 21.0537 0.85 20.7031 0.85H7.03125C5.95547 0.85 4.92374 1.27735 4.16305 2.03805C3.40236 2.79874 2.975 3.83047 2.975 4.90625V18.9687ZM2.975 18.9687C2.975 18.9686 2.975 18.9686 2.975 18.9686L3.125 18.9688M2.975 18.9687V18.9688H3.125M3.125 18.9688C3.1239 19.9912 3.52455 20.9732 4.24063 21.7031L16.7969 20.5312C16.4861 20.5312 16.188 20.6547 15.9682 20.8745C15.7485 21.0943 15.625 21.3923 15.625 21.7031C15.625 22.0139 15.7485 22.312 15.9682 22.5318C16.188 22.7515 16.4861 22.875 16.7969 22.875H20.7031C21.0139 22.875 21.312 22.7515 21.5318 22.5318C21.7515 22.312 21.875 22.0139 21.875 21.7031V2.17188C21.875 1.86107 21.7515 1.563 21.5318 1.34323C21.312 1.12347 21.0139 1 20.7031 1H7.03125C5.99525 1 5.00168 1.41155 4.26912 2.14411C3.53655 2.87668 3.125 3.87025 3.125 4.90625V18.9688ZM7.03153 14.9125C6.54868 14.9116 6.07021 14.9974 5.61875 15.1652V4.90625C5.61875 4.53163 5.76757 4.17236 6.03246 3.90746C6.29736 3.64257 6.65663 3.49375 7.03125 3.49375H19.3813V14.9125H7.03153ZM7.03153 14.9125L7.03125 15.0625V14.9125H7.03153ZM8.23821 25.6078L8.25168 25.7572C8.35167 25.7482 8.44718 25.7115 8.5275 25.6513L10.7931 23.9528L10.7935 23.9525C10.835 23.9212 10.8855 23.9043 10.9375 23.9043C10.9895 23.9043 11.04 23.9212 11.0815 23.9525L11.0819 23.9528L13.3475 25.6513C13.4278 25.7115 13.5233 25.7482 13.6233 25.7572L13.6368 25.6078L13.6233 25.7572C13.7233 25.7662 13.8238 25.7472 13.9137 25.7023C14.0035 25.6574 14.079 25.5884 14.1318 25.503C14.1845 25.4176 14.2125 25.3192 14.2125 25.2188V20.1406C14.2125 19.9972 14.1555 19.8597 14.0542 19.7583C13.9528 19.657 13.8153 19.6 13.6719 19.6H8.20313C8.05974 19.6 7.92223 19.657 7.82085 19.7583C7.71946 19.8597 7.6625 19.9972 7.6625 20.1406V25.2188C7.6625 25.3192 7.69046 25.4176 7.74324 25.503L7.87084 25.4241L7.74324 25.503C7.79603 25.5884 7.87155 25.6574 7.96135 25.7023C8.05115 25.7472 8.15168 25.7662 8.25168 25.7572L8.23821 25.6078Z" fill="black" stroke="black" stroke-width="0.3"/>
</svg>
