<svg width="28" height="28" viewBox="0 0 28 28" fill="none" xmlns="http://www.w3.org/2000/svg">
<path d="M14 7.00003C14.3094 7.00003 14.6061 6.87711 14.8249 6.65832C15.0437 6.43953 15.1666 6.14278 15.1666 5.83336C15.1666 5.52394 15.0437 5.2272 14.8249 5.0084C14.6061 4.78961 14.3094 4.6667 14 4.6667C13.6906 4.6667 13.3938 4.78961 13.175 5.0084C12.9562 5.2272 12.8333 5.52394 12.8333 5.83336C12.8333 6.14278 12.9562 6.43953 13.175 6.65832C13.3938 6.87711 13.6906 7.00003 14 7.00003ZM12.8333 9.13503C12.0561 8.86082 11.4005 8.3212 10.982 7.61118C10.5635 6.90116 10.4088 6.06626 10.5453 5.25345C10.6818 4.44065 11.1007 3.70206 11.7282 3.1677C12.3557 2.63335 13.1516 2.3375 13.9758 2.33222C14.7999 2.32695 15.5996 2.61261 16.2338 3.13889C16.8681 3.66518 17.2964 4.39835 17.4433 5.20934C17.5902 6.02034 17.4462 6.85715 17.0368 7.57247C16.6274 8.28778 15.9788 8.83573 15.2051 9.11986V11.4859C15.2051 11.5722 15.2016 11.6585 15.1958 11.7437C15.2307 11.8976 15.2965 12.0428 15.3891 12.1705C15.4818 12.2983 15.5994 12.4059 15.7348 12.4869L19.3351 14.6405C19.8546 14.9512 20.2846 15.3914 20.5831 15.9179C20.8817 16.4444 21.0386 17.0394 21.0385 17.6447V18.8802C21.8138 19.1648 22.4636 19.7143 22.873 20.4316C23.2824 21.149 23.425 21.9879 23.2756 22.8003C23.1262 23.6126 22.6945 24.3459 22.0567 24.8707C21.4189 25.3954 20.6161 25.6778 19.7902 25.6679C18.9643 25.658 18.1685 25.3564 17.5435 24.8165C16.9185 24.2766 16.5044 23.5331 16.3746 22.7174C16.2447 21.9018 16.4074 21.0665 16.8339 20.3591C17.2604 19.6518 17.9232 19.1181 18.7051 18.8522V17.6447C18.7051 17.443 18.6527 17.2447 18.5531 17.0693C18.4535 16.8938 18.3101 16.7472 18.137 16.6437L14.5366 14.49C14.3528 14.3801 14.1794 14.2536 14.0186 14.112C13.8583 14.2536 13.6853 14.3801 13.5018 14.49L9.90147 16.6437C9.72831 16.7472 9.58493 16.8938 9.48535 17.0693C9.38577 17.2447 9.33338 17.443 9.33331 17.6447V18.8662C10.112 19.1414 10.7684 19.6831 11.1864 20.3955C11.6044 21.1078 11.757 21.9451 11.6174 22.7591C11.4778 23.5732 11.0549 24.3117 10.4234 24.844C9.79194 25.3764 8.99259 25.6684 8.16664 25.6684C7.34069 25.6684 6.54134 25.3764 5.90987 24.844C5.2784 24.3117 4.85548 23.5732 4.71586 22.7591C4.57624 21.9451 4.72891 21.1078 5.14689 20.3955C5.56486 19.6831 6.22123 19.1414 6.99997 18.8662V17.6447C6.99989 17.0394 7.15677 16.4444 7.45532 15.9179C7.75386 15.3914 8.18385 14.9512 8.70331 14.6405L12.3036 12.4869C12.4391 12.4059 12.5567 12.2983 12.6493 12.1705C12.742 12.0428 12.8077 11.8976 12.8426 11.7437C12.8364 11.6579 12.8333 11.5719 12.8333 11.4859V9.13503ZM8.16664 23.3334C8.47606 23.3334 8.77281 23.2104 8.9916 22.9917C9.21039 22.7729 9.33331 22.4761 9.33331 22.1667C9.33331 21.8573 9.21039 21.5605 8.9916 21.3417C8.77281 21.1229 8.47606 21 8.16664 21C7.85722 21 7.56047 21.1229 7.34168 21.3417C7.12289 21.5605 6.99997 21.8573 6.99997 22.1667C6.99997 22.4761 7.12289 22.7729 7.34168 22.9917C7.56047 23.2104 7.85722 23.3334 8.16664 23.3334ZM19.8333 23.3334C20.1427 23.3334 20.4395 23.2104 20.6583 22.9917C20.8771 22.7729 21 22.4761 21 22.1667C21 21.8573 20.8771 21.5605 20.6583 21.3417C20.4395 21.1229 20.1427 21 19.8333 21C19.5239 21 19.2271 21.1229 19.0083 21.3417C18.7896 21.5605 18.6666 21.8573 18.6666 22.1667C18.6666 22.4761 18.7896 22.7729 19.0083 22.9917C19.2271 23.2104 19.5239 23.3334 19.8333 23.3334Z" fill="#9676FF"/>
</svg>
