<svg width="28" height="28" viewBox="0 0 28 28" fill="none" xmlns="http://www.w3.org/2000/svg">
<path fill-rule="evenodd" clip-rule="evenodd" d="M8.16662 10.3016C8.94536 10.0264 9.60173 9.48473 10.0197 8.77235C10.4377 8.05997 10.5904 7.22276 10.4507 6.40871C10.3111 5.59465 9.88819 4.85616 9.25672 4.32377C8.62525 3.79139 7.8259 3.49939 6.99995 3.49939C6.17401 3.49939 5.37465 3.79139 4.74319 4.32377C4.11172 4.85616 3.68879 5.59465 3.54917 6.40871C3.40955 7.22276 3.56222 8.05997 3.9802 8.77235C4.39818 9.48473 5.05454 10.0264 5.83329 10.3016V17.6983C5.05454 17.9735 4.39818 18.5152 3.9802 19.2276C3.56222 19.9399 3.40955 20.7772 3.54917 21.5912C3.68879 22.4053 4.11172 23.1438 4.74319 23.6761C5.37465 24.2085 6.17401 24.5005 6.99995 24.5005C7.8259 24.5005 8.62525 24.2085 9.25672 23.6761C9.88819 23.1438 10.3111 22.4053 10.4507 21.5912C10.5904 20.7772 10.4377 19.9399 10.0197 19.2276C9.60173 18.5152 8.94536 17.9735 8.16662 17.6983V10.3016ZM6.99995 5.83329C6.69053 5.83329 6.39379 5.95621 6.175 6.175C5.9562 6.39379 5.83329 6.69054 5.83329 6.99996C5.83329 7.30938 5.9562 7.60612 6.175 7.82492C6.39379 8.04371 6.69053 8.16663 6.99995 8.16663C7.30937 8.16663 7.60612 8.04371 7.82491 7.82492C8.0437 7.60612 8.16662 7.30938 8.16662 6.99996C8.16662 6.69054 8.0437 6.39379 7.82491 6.175C7.60612 5.95621 7.30937 5.83329 6.99995 5.83329ZM6.99995 19.8333C6.69053 19.8333 6.39379 19.9562 6.175 20.175C5.9562 20.3938 5.83329 20.6905 5.83329 21C5.83329 21.3094 5.9562 21.6061 6.175 21.8249C6.39379 22.0437 6.69053 22.1666 6.99995 22.1666C7.30937 22.1666 7.60612 22.0437 7.82491 21.8249C8.0437 21.6061 8.16662 21.3094 8.16662 21C8.16662 20.6905 8.0437 20.3938 7.82491 20.175C7.60612 19.9562 7.30937 19.8333 6.99995 19.8333ZM19.8333 17.6983C19.0545 17.9735 18.3982 18.5152 17.9802 19.2276C17.5622 19.9399 17.4096 20.7772 17.5492 21.5912C17.6888 22.4053 18.1117 23.1438 18.7432 23.6761C19.3747 24.2085 20.174 24.5005 21 24.5005C21.8259 24.5005 22.6253 24.2085 23.2567 23.6761C23.8882 23.1438 24.3111 22.4053 24.4507 21.5912C24.5904 20.7772 24.4377 19.9399 24.0197 19.2276C23.6017 18.5152 22.9454 17.9735 22.1666 17.6983V12.1333C22.1666 10.4624 21.5029 8.86 20.3214 7.67852C19.1399 6.49704 17.5375 5.83329 15.8666 5.83329H15.6496L15.9915 5.49146C16.204 5.27142 16.3216 4.97672 16.3189 4.67082C16.3162 4.36493 16.1936 4.07231 15.9772 3.856C15.7609 3.63969 15.4683 3.517 15.1624 3.51434C14.8565 3.51168 14.5618 3.62927 14.3418 3.84179L12.0085 6.17513C11.7897 6.39391 11.6669 6.6906 11.6669 6.99996C11.6669 7.30932 11.7897 7.60601 12.0085 7.82479L14.3418 10.1581C14.4494 10.2696 14.5781 10.3584 14.7205 10.4196C14.8628 10.4807 15.0159 10.5129 15.1708 10.5143C15.3257 10.5156 15.4794 10.4861 15.6227 10.4274C15.7661 10.3688 15.8964 10.2821 16.0059 10.1726C16.1155 10.063 16.2021 9.93278 16.2607 9.7894C16.3194 9.64603 16.3489 9.4924 16.3476 9.33749C16.3462 9.18258 16.314 9.02949 16.2529 8.88715C16.1918 8.74482 16.1029 8.61608 15.9915 8.50846L15.6496 8.16663H15.8666C16.9186 8.16663 17.9276 8.58454 18.6715 9.32843C19.4154 10.0723 19.8333 11.0813 19.8333 12.1333V17.6983ZM19.8333 21C19.8333 20.6905 19.9562 20.3938 20.175 20.175C20.3938 19.9562 20.6905 19.8333 21 19.8333C21.3094 19.8333 21.6061 19.9562 21.8249 20.175C22.0437 20.3938 22.1666 20.6905 22.1666 21C22.1666 21.3094 22.0437 21.6061 21.8249 21.8249C21.6061 22.0437 21.3094 22.1666 21 22.1666C20.6905 22.1666 20.3938 22.0437 20.175 21.8249C19.9562 21.6061 19.8333 21.3094 19.8333 21Z" fill="#29CB97"/>
</svg>
