<svg width="61" height="17" viewBox="0 0 61 17" fill="none" xmlns="http://www.w3.org/2000/svg">
<g clip-path="url(#clip0_211_465)">
<path d="M9.28125 12.125C8.71875 12.125 8.23438 11.9922 7.82813 11.7266C7.42188 11.4609 7.10938 11.0951 6.89063 10.6289C6.67188 10.1628 6.5625 9.63021 6.5625 9.03125C6.5625 8.42187 6.67448 7.88411 6.89844 7.41797C7.125 6.94922 7.4401 6.58333 7.84375 6.32031C8.25 6.05469 8.72396 5.92188 9.26562 5.92188C9.6875 5.92188 10.0677 6 10.4063 6.15625C10.7448 6.3125 11.0221 6.53125 11.2383 6.8125C11.4544 7.09375 11.5885 7.42187 11.6406 7.79687H10.7188C10.6484 7.52344 10.4922 7.28125 10.25 7.07031C10.0104 6.85677 9.6875 6.75 9.28125 6.75C8.92188 6.75 8.60677 6.84375 8.33594 7.03125C8.06771 7.21615 7.85807 7.47786 7.70703 7.81641C7.55859 8.15234 7.48438 8.54687 7.48438 9C7.48438 9.46354 7.55729 9.86719 7.70313 10.2109C7.85156 10.5547 8.0599 10.8216 8.32813 11.0117C8.59896 11.2018 8.91667 11.2969 9.28125 11.2969C9.52083 11.2969 9.73828 11.2552 9.93359 11.1719C10.1289 11.0885 10.2943 10.9688 10.4297 10.8125C10.5651 10.6562 10.6615 10.4687 10.7188 10.25H11.6406C11.5885 10.6042 11.4596 10.9232 11.2539 11.207C11.0508 11.4883 10.7813 11.7122 10.4453 11.8789C10.112 12.043 9.72396 12.125 9.28125 12.125ZM15.4258 12.125C14.8841 12.125 14.4089 11.9961 14 11.7383C13.5938 11.4805 13.276 11.1198 13.0469 10.6562C12.8203 10.1927 12.707 9.65104 12.707 9.03125C12.707 8.40625 12.8203 7.86068 13.0469 7.39453C13.276 6.92839 13.5938 6.56641 14 6.30859C14.4089 6.05078 14.8841 5.92188 15.4258 5.92188C15.9674 5.92188 16.4414 6.05078 16.8477 6.30859C17.2565 6.56641 17.5742 6.92839 17.8008 7.39453C18.0299 7.86068 18.1445 8.40625 18.1445 9.03125C18.1445 9.65104 18.0299 10.1927 17.8008 10.6562C17.5742 11.1198 17.2565 11.4805 16.8477 11.7383C16.4414 11.9961 15.9674 12.125 15.4258 12.125ZM15.4258 11.2969C15.8372 11.2969 16.1758 11.1914 16.4414 10.9805C16.707 10.7695 16.9036 10.4922 17.0313 10.1484C17.1589 9.80469 17.2227 9.43229 17.2227 9.03125C17.2227 8.63021 17.1589 8.25651 17.0313 7.91016C16.9036 7.5638 16.707 7.28385 16.4414 7.07031C16.1758 6.85677 15.8372 6.75 15.4258 6.75C15.0143 6.75 14.6758 6.85677 14.4102 7.07031C14.1445 7.28385 13.9479 7.5638 13.8203 7.91016C13.6927 8.25651 13.6289 8.63021 13.6289 9.03125C13.6289 9.43229 13.6927 9.80469 13.8203 10.1484C13.9479 10.4922 14.1445 10.7695 14.4102 10.9805C14.6758 11.1914 15.0143 11.2969 15.4258 11.2969ZM19.5518 12V6H20.4424V6.9375H20.5205C20.6455 6.61719 20.8473 6.36849 21.126 6.19141C21.4046 6.01172 21.7393 5.92188 22.1299 5.92188C22.5257 5.92188 22.8551 6.01172 23.1182 6.19141C23.3838 6.36849 23.5908 6.61719 23.7393 6.9375H23.8018C23.9554 6.6276 24.1859 6.38151 24.4932 6.19922C24.8005 6.01432 25.1689 5.92188 25.5986 5.92188C26.1351 5.92188 26.5739 6.08984 26.915 6.42578C27.2562 6.75911 27.4268 7.27865 27.4268 7.98437V12H26.5049V7.98437C26.5049 7.54167 26.3838 7.22526 26.1416 7.03516C25.8994 6.84505 25.6143 6.75 25.2861 6.75C24.8643 6.75 24.5374 6.8776 24.3057 7.13281C24.0739 7.38542 23.958 7.70573 23.958 8.09375V12H23.0205V7.89062C23.0205 7.54948 22.9098 7.27474 22.6885 7.06641C22.4671 6.85547 22.182 6.75 21.833 6.75C21.5934 6.75 21.3695 6.8138 21.1611 6.94141C20.9554 7.06901 20.7887 7.24609 20.6611 7.47266C20.5361 7.69661 20.4736 7.95573 20.4736 8.25V12H19.5518ZM29.1123 12V6H30.0029V6.9375H30.0811C30.2061 6.61719 30.4079 6.36849 30.6865 6.19141C30.9652 6.01172 31.2998 5.92188 31.6904 5.92188C32.0863 5.92188 32.4157 6.01172 32.6787 6.19141C32.9443 6.36849 33.1514 6.61719 33.2998 6.9375H33.3623C33.516 6.6276 33.7464 6.38151 34.0537 6.19922C34.361 6.01432 34.7295 5.92188 35.1592 5.92188C35.6956 5.92188 36.1344 6.08984 36.4756 6.42578C36.8167 6.75911 36.9873 7.27865 36.9873 7.98437V12H36.0654V7.98437C36.0654 7.54167 35.9443 7.22526 35.7021 7.03516C35.46 6.84505 35.1748 6.75 34.8467 6.75C34.4248 6.75 34.098 6.8776 33.8662 7.13281C33.6344 7.38542 33.5186 7.70573 33.5186 8.09375V12H32.5811V7.89062C32.5811 7.54948 32.4704 7.27474 32.249 7.06641C32.0277 6.85547 31.7425 6.75 31.3936 6.75C31.154 6.75 30.93 6.8138 30.7217 6.94141C30.516 7.06901 30.3493 7.24609 30.2217 7.47266C30.0967 7.69661 30.0342 7.95573 30.0342 8.25V12H29.1123ZM41.1885 12.125C40.6104 12.125 40.1117 11.9974 39.6924 11.7422C39.2757 11.4844 38.9541 11.125 38.7275 10.6641C38.5036 10.2005 38.3916 9.66146 38.3916 9.04688C38.3916 8.43229 38.5036 7.89062 38.7275 7.42187C38.9541 6.95052 39.2692 6.58333 39.6729 6.32031C40.0791 6.05469 40.5531 5.92188 41.0947 5.92188C41.4072 5.92188 41.7158 5.97396 42.0205 6.07812C42.3252 6.18229 42.6025 6.35156 42.8525 6.58594C43.1025 6.81771 43.3018 7.125 43.4502 7.50781C43.5986 7.89062 43.6729 8.36198 43.6729 8.92187V9.3125H39.0479V8.51562H42.7354C42.7354 8.17708 42.6676 7.875 42.5322 7.60937C42.3994 7.34375 42.2093 7.13411 41.9619 6.98047C41.7171 6.82682 41.4281 6.75 41.0947 6.75C40.7275 6.75 40.4098 6.84115 40.1416 7.02344C39.876 7.20312 39.6715 7.4375 39.5283 7.72656C39.3851 8.01562 39.3135 8.32552 39.3135 8.65625V9.1875C39.3135 9.64063 39.3916 10.0247 39.5479 10.3398C39.7067 10.6523 39.9268 10.8906 40.208 11.0547C40.4893 11.2161 40.8161 11.2969 41.1885 11.2969C41.4307 11.2969 41.6494 11.263 41.8447 11.1953C42.0426 11.125 42.2132 11.0208 42.3564 10.8828C42.4997 10.7422 42.6104 10.5677 42.6885 10.3594L43.5791 10.6094C43.4854 10.9115 43.3278 11.1771 43.1064 11.4062C42.8851 11.6328 42.6117 11.8099 42.2861 11.9375C41.9606 12.0625 41.5947 12.125 41.1885 12.125ZM45.9971 8.39062V12H45.0752V6H45.9658V6.9375H46.0439C46.1846 6.63281 46.3981 6.38802 46.6846 6.20313C46.971 6.01563 47.3408 5.92188 47.7939 5.92188C48.2002 5.92188 48.5557 6.00521 48.8604 6.17187C49.165 6.33594 49.402 6.58594 49.5713 6.92187C49.7406 7.25521 49.8252 7.67708 49.8252 8.1875V12H48.9033V8.25C48.9033 7.77865 48.7809 7.41146 48.5361 7.14844C48.2913 6.88281 47.9554 6.75 47.5283 6.75C47.234 6.75 46.971 6.8138 46.7393 6.94141C46.5101 7.06901 46.3291 7.25521 46.1963 7.5C46.0635 7.74479 45.9971 8.04167 45.9971 8.39062ZM54.1191 6V6.78125H51.0098V6H54.1191ZM51.916 4.5625H52.8379V10.2812C52.8379 10.5417 52.8757 10.737 52.9512 10.8672C53.0293 10.9948 53.1283 11.0807 53.248 11.125C53.3704 11.1667 53.4993 11.1875 53.6348 11.1875C53.7363 11.1875 53.8197 11.1823 53.8848 11.1719C53.9499 11.1589 54.002 11.1484 54.041 11.1406L54.2285 11.9687C54.166 11.9922 54.0788 12.0156 53.9668 12.0391C53.8548 12.0651 53.7129 12.0781 53.541 12.0781C53.2806 12.0781 53.0254 12.0221 52.7754 11.9102C52.528 11.7982 52.3223 11.6276 52.1582 11.3984C51.9967 11.1693 51.916 10.8802 51.916 10.5312V4.5625Z" fill="#29CB97"/>
</g>
<rect x="0.5" y="1" width="60" height="15" rx="7.5" stroke="#29CB97"/>
<defs>
<clipPath id="clip0_211_465">
<rect y="0.5" width="61" height="16" rx="8" fill="white"/>
</clipPath>
</defs>
</svg>
