<svg width="178" height="156" viewBox="0 0 178 156" fill="none" xmlns="http://www.w3.org/2000/svg">
<path d="M133.353 8.66066C131.62 9.59399 127.22 14.6607 123.487 19.994C118.153 27.594 116.287 29.4607 114.153 28.9273C112.687 28.5273 106.82 27.4607 101.087 26.6607C91.2199 25.194 78.2866 26.1273 64.1533 29.0607C61.4866 29.594 60.2866 28.9273 58.2866 25.3273C53.7533 17.7273 44.0199 8.26065 40.6866 8.26065C33.0866 8.26065 15.0866 35.3273 10.6866 53.594C8.15327 63.994 8.55327 85.7273 11.3533 95.594C17.8866 117.861 35.0866 134.927 60.4199 143.994C69.2199 147.194 72.0199 147.461 88.8199 147.594C105.887 147.594 108.42 147.194 118.153 143.861C131.487 139.194 143.62 131.461 152.153 121.994C176.287 95.594 175.487 50.5273 150.287 18.9273C142.687 9.46065 137.887 6.52731 133.353 8.66066ZM49.4866 37.194C51.0866 40.394 53.3533 43.4607 54.4199 43.8607C55.6199 44.2607 61.0866 43.594 66.6866 42.1273C80.0199 38.9273 99.0866 38.9273 111.753 42.1273C117.087 43.4607 122.42 44.2607 123.487 43.8607C124.553 43.3273 126.687 40.5273 128.287 37.3273C129.887 34.1273 132.42 29.8607 133.887 27.7273L136.687 23.8607L141.22 29.0607C146.553 35.3273 152.553 47.7273 154.82 57.4607C155.887 61.7273 156.287 69.594 155.887 77.594C155.353 88.5273 154.553 91.994 151.087 99.4607C132.953 138.127 73.2199 147.327 40.1533 116.661C30.0199 107.327 24.5533 96.794 22.6866 83.194C20.1533 64.5273 24.9533 45.3273 35.6199 30.6607L40.6866 23.8607L43.6199 27.594C45.2199 29.594 47.8866 33.8607 49.4866 37.194Z" fill="black"/>
<path d="M50 64L75 87" stroke="black" stroke-width="7"/>
<path d="M104 64L129 87" stroke="black" stroke-width="7"/>
<path d="M130 64L105 87" stroke="black" stroke-width="7"/>
<path d="M75 64L50 87" stroke="black" stroke-width="7"/>
</svg>
