<svg width="22" height="22" viewBox="0 0 22 22" fill="none" xmlns="http://www.w3.org/2000/svg">
<path d="M6.875 7.5625C6.875 7.01549 7.0923 6.49089 7.47909 6.10409C7.86589 5.7173 8.39049 5.5 8.9375 5.5H15.8125C16.3595 5.5 16.8841 5.7173 17.2709 6.10409C17.6577 6.49089 17.875 7.01549 17.875 7.5625V14.4375C17.875 14.9845 17.6577 15.5091 17.2709 15.8959C16.8841 16.2827 16.3595 16.5 15.8125 16.5H8.9375C8.39049 16.5 7.86589 16.2827 7.47909 15.8959C7.0923 15.5091 6.875 14.9845 6.875 14.4375V7.5625Z" fill="url(#paint0_linear_707_139)"/>
<path d="M6.875 7.5625C6.875 7.01549 7.0923 6.49089 7.47909 6.10409C7.86589 5.7173 8.39049 5.5 8.9375 5.5H15.8125C16.3595 5.5 16.8841 5.7173 17.2709 6.10409C17.6577 6.49089 17.875 7.01549 17.875 7.5625V14.4375C17.875 14.9845 17.6577 15.5091 17.2709 15.8959C16.8841 16.2827 16.3595 16.5 15.8125 16.5H8.9375C8.39049 16.5 7.86589 16.2827 7.47909 15.8959C7.0923 15.5091 6.875 14.9845 6.875 14.4375V7.5625Z" fill="url(#paint1_linear_707_139)"/>
<path d="M4.125 4.8125C4.125 4.26549 4.3423 3.74089 4.72909 3.35409C5.11589 2.9673 5.64049 2.75 6.1875 2.75H13.0625C13.6095 2.75 14.1341 2.9673 14.5209 3.35409C14.9077 3.74089 15.125 4.26549 15.125 4.8125V14.4375C15.125 14.9845 14.9077 15.5091 14.5209 15.8959C14.1341 16.2827 13.6095 16.5 13.0625 16.5H6.1875C5.64049 16.5 5.11589 16.2827 4.72909 15.8959C4.3423 15.5091 4.125 14.9845 4.125 14.4375V4.8125Z" fill="url(#paint2_radial_707_139)"/>
<path d="M4.8125 6.875C4.26549 6.875 3.74089 7.0923 3.35409 7.47909C2.9673 7.86589 2.75 8.39049 2.75 8.9375V16.5C2.75 17.2293 3.03973 17.9288 3.55546 18.4445C4.07118 18.9603 4.77065 19.25 5.5 19.25H16.5C17.2293 19.25 17.9288 18.9603 18.4445 18.4445C18.9603 17.9288 19.25 17.2293 19.25 16.5V15.8125C19.25 15.2655 19.0327 14.7409 18.6459 14.3541C18.2591 13.9673 17.7345 13.75 17.1875 13.75H15.0067C14.8248 13.75 14.6502 13.6778 14.5214 13.5493L8.45075 7.47863C8.0641 7.09223 7.53988 6.87512 6.99325 6.875H4.8125Z" fill="url(#paint3_linear_707_139)"/>
<defs>
<linearGradient id="paint0_linear_707_139" x1="19.525" y1="18.6161" x2="20.9646" y2="6.96988" gradientUnits="userSpaceOnUse">
<stop stop-color="#BB45EA"/>
<stop offset="1" stop-color="#9C6CFE"/>
</linearGradient>
<linearGradient id="paint1_linear_707_139" x1="17.875" y1="9.30738" x2="15.125" y2="9.30738" gradientUnits="userSpaceOnUse">
<stop offset="0.338" stop-color="#5750E2" stop-opacity="0"/>
<stop offset="1" stop-color="#5750E2"/>
</linearGradient>
<radialGradient id="paint2_radial_707_139" cx="0" cy="0" r="1" gradientUnits="userSpaceOnUse" gradientTransform="translate(7.425 13.75) rotate(-55.8525) scale(12.7377 19.7779)">
<stop offset="0.228" stop-color="#2764E7"/>
<stop offset="0.685" stop-color="#5CD1FF"/>
<stop offset="1" stop-color="#6CE0FF"/>
</radialGradient>
<linearGradient id="paint3_linear_707_139" x1="6.28512" y1="6.875" x2="6.28512" y2="23.7504" gradientUnits="userSpaceOnUse">
<stop offset="0.241" stop-color="#FFD638"/>
<stop offset="0.637" stop-color="#FAB500"/>
<stop offset="0.985" stop-color="#CA6407"/>
</linearGradient>
</defs>
</svg>
