<svg width="55" height="53" viewBox="0 0 55 53" fill="none" xmlns="http://www.w3.org/2000/svg">
<rect x="6.9718" y="6.23529" width="40.2817" height="37.4118" fill="white"/>
<path d="M19.857 35.4911C19.9179 35.4021 19.8884 35.2242 19.7647 35.1068C19.6114 34.9876 19.4268 34.9592 19.3345 35.0481C19.2736 35.1371 19.3031 35.315 19.4268 35.4324C19.58 35.5516 19.7647 35.58 19.857 35.4911ZM18.9986 34.2777C18.9063 34.1585 18.7531 34.0998 18.6313 34.1585C18.5389 34.2172 18.5389 34.3951 18.6313 34.5125C18.755 34.6601 18.9082 34.7188 18.9986 34.6601C19.0909 34.6014 19.0909 34.4235 18.9986 34.2758V34.2777ZM17.7395 33.0947C17.7709 33.036 17.7081 32.9168 17.5863 32.8581C17.4939 32.8278 17.3722 32.8278 17.3407 32.9168C17.2798 33.0057 17.3407 33.0947 17.4645 33.1534C17.5882 33.1837 17.71 33.1837 17.7414 33.0947H17.7395ZM18.3838 33.7761C18.4447 33.7175 18.4447 33.5698 18.3229 33.4808C18.2306 33.3616 18.0773 33.3332 18.0164 33.3919C17.9241 33.4808 17.9556 33.5982 18.0479 33.7175C18.1402 33.8064 18.2934 33.8651 18.3857 33.7761H18.3838ZM21.0238 35.9946C21.0552 35.8753 20.9314 35.7277 20.7468 35.669C20.5622 35.6103 20.4089 35.669 20.3481 35.7882C20.3166 35.9075 20.4404 36.0551 20.625 36.1138C20.8097 36.1725 20.9629 36.1138 21.0238 35.9946ZM22.3123 36.0835C22.3123 35.9643 22.1591 35.8469 21.945 35.8469C21.7604 35.8469 21.6386 35.9662 21.6386 36.0835C21.6386 36.2009 21.7918 36.3201 21.9764 36.3201C22.1611 36.3201 22.3143 36.2009 22.3143 36.0835H22.3123ZM23.5106 35.8753C23.4791 35.7561 23.2964 35.6974 23.1118 35.7277C22.9272 35.758 22.8054 35.8753 22.8348 35.9946C22.8643 36.1138 23.0195 36.2009 23.2022 36.1725C23.3848 36.1441 23.5086 35.9946 23.5086 35.8772L23.5106 35.8753ZM43.2143 26.5C43.2143 18.1298 36.1861 11.3571 27.5 11.3571C18.8139 11.3571 11.7857 18.1298 11.7857 26.5C11.7857 33.1837 16.2977 38.8622 22.5284 40.8743C23.3259 41.022 23.6029 40.5488 23.6029 40.1342C23.6029 39.7803 23.6029 38.5972 23.5714 37.3252C23.5714 37.3252 19.2127 38.2414 18.2914 35.5213C18.2914 35.5213 17.5863 33.7761 16.5413 33.3332C16.5413 33.3332 15.1289 32.3868 16.665 32.3868C16.665 32.3868 18.1991 32.506 19.0595 33.9541C20.4404 36.2898 22.7425 35.6103 23.6323 35.2261C23.7856 34.2493 24.1843 33.5698 24.6459 33.1856C21.1475 32.8013 17.4645 31.499 17.4645 25.7031C17.4645 24.0468 18.0793 22.7162 19.0909 21.6505C18.9377 21.2662 18.3857 19.7273 19.2441 17.6282C20.5641 17.2439 23.5714 19.1955 23.5714 19.1955C24.8306 18.8415 26.1506 18.692 27.5 18.692C28.8495 18.692 30.1695 18.8396 31.4286 19.1955C31.4286 19.1955 34.4359 17.2439 35.7559 17.6282C36.6163 19.7273 36.0623 21.2662 35.9091 21.6505C36.9227 22.7143 37.5356 24.0468 37.5356 25.7031C37.5356 31.5293 33.8525 32.8013 30.3541 33.1856C30.9061 33.6588 31.4286 34.5749 31.4286 35.9946C31.4286 38.0048 31.3972 39.6326 31.3972 40.1361C31.3972 40.5507 31.6741 41.0239 32.4716 40.8762C38.7023 38.866 43.2143 33.1875 43.2143 26.5019V26.5ZM51.0714 12.3036V40.6964C51.0714 45.3983 47.1114 49.2143 42.2322 49.2143H12.7679C10.4239 49.2133 8.17617 48.3155 6.51871 46.7183C4.86124 45.1212 3.92963 42.9552 3.92859 40.6964V12.3036C3.92859 7.6017 7.88859 3.78571 12.7679 3.78571H42.2322C47.1114 3.78571 51.0714 7.6017 51.0714 12.3036Z" fill="black"/>
</svg>
