<svg width="39" height="39" viewBox="0 0 39 39" fill="none" xmlns="http://www.w3.org/2000/svg">
<path d="M35.5081 21.6239L33.71 16.0898L30.1462 5.12117C29.9629 4.55684 29.1645 4.55684 28.9811 5.12117L25.4171 16.0898H13.5825L10.0185 5.12109C9.83523 4.55676 9.03682 4.55676 8.85336 5.12109L5.28954 16.0898L3.49149 21.624C3.41154 21.8701 3.41153 22.1351 3.49147 22.3812C3.5714 22.6272 3.72718 22.8416 3.93648 22.9937L19.4994 34.301L35.0625 22.9938C35.4918 22.6818 35.6716 22.1288 35.5075 21.624" fill="#FC6D26"/>
<path d="M19.5001 34.3013L25.4173 16.0897H13.5828L19.5001 34.3013Z" fill="#E24329"/>
<path d="M19.5001 34.3013L13.5829 16.0902H5.29016L19.5001 34.3013Z" fill="#FC6D26"/>
<path d="M5.28982 16.09L3.49161 21.6243C3.41165 21.8703 3.41165 22.1354 3.4916 22.3814C3.57156 22.6275 3.72736 22.8419 3.93668 22.9939L19.4997 34.3013L5.28982 16.09Z" fill="#FCA326"/>
<path d="M5.28992 16.0898H13.5826L10.0187 5.12109C9.83537 4.55668 9.03688 4.55668 8.85358 5.12109L5.28992 16.0898Z" fill="#E24329"/>
<path d="M19.5001 34.3013L25.4174 16.0903H33.7101L19.5001 34.3013Z" fill="#FC6D26"/>
<path d="M33.7104 16.09L35.5086 21.6243C35.5885 21.8703 35.5885 22.1354 35.5086 22.3814C35.4286 22.6275 35.2728 22.8419 35.0635 22.9939L19.5005 34.3013L33.7104 16.09Z" fill="#FCA326"/>
<path d="M33.7098 16.0898H25.4171L28.9811 5.12109C29.1645 4.55668 29.9629 4.55668 30.1462 5.12109L33.7098 16.0898Z" fill="#E24329"/>
</svg>
