<svg width="178" height="156" viewBox="0 0 178 156" fill="none" xmlns="http://www.w3.org/2000/svg">
<path d="M133.353 8.6606C131.62 9.59393 127.22 14.6606 123.487 19.9939C118.153 27.5939 116.287 29.4606 114.153 28.9273C112.687 28.5273 106.82 27.4606 101.087 26.6606C91.2199 25.1939 78.2866 26.1273 64.1533 29.0606C61.4866 29.5939 60.2866 28.9273 58.2866 25.3273C53.7533 17.7273 44.0199 8.26059 40.6866 8.26059C33.0866 8.26059 15.0866 35.3273 10.6866 53.5939C8.15327 63.9939 8.55327 85.7273 11.3533 95.5939C17.8866 117.861 35.0866 134.927 60.4199 143.994C69.2199 147.194 72.0199 147.461 88.8199 147.594C105.887 147.594 108.42 147.194 118.153 143.861C131.487 139.194 143.62 131.461 152.153 121.994C176.287 95.5939 175.487 50.5273 150.287 18.9273C142.687 9.46059 137.887 6.52725 133.353 8.6606ZM49.4866 37.1939C51.0866 40.3939 53.3533 43.4606 54.4199 43.8606C55.6199 44.2606 61.0866 43.5939 66.6866 42.1273C80.0199 38.9273 99.0866 38.9273 111.753 42.1273C117.087 43.4606 122.42 44.2606 123.487 43.8606C124.553 43.3273 126.687 40.5273 128.287 37.3273C129.887 34.1273 132.42 29.8606 133.887 27.7273L136.687 23.8606L141.22 29.0606C146.553 35.3273 152.553 47.7273 154.82 57.4606C155.887 61.7273 156.287 69.5939 155.887 77.5939C155.353 88.5273 154.553 91.9939 151.087 99.4606C132.953 138.127 73.2199 147.327 40.1533 116.661C30.0199 107.327 24.5533 96.7939 22.6866 83.1939C20.1533 64.5273 24.9533 45.3273 35.6199 30.6606L40.6866 23.8606L43.6199 27.5939C45.2199 29.5939 47.8866 33.8606 49.4866 37.1939Z" fill="black"/>
<path d="M81.7535 96.5273C78.0202 101.194 86.2869 107.994 92.8202 105.594C96.1535 104.394 98.4202 98.9273 96.8202 96.3939C95.6202 94.3939 83.4869 94.5273 81.7535 96.5273Z" fill="black"/>
</svg>
