<svg width="91" height="80" viewBox="0 0 91 80" fill="none" xmlns="http://www.w3.org/2000/svg">
<path d="M68.1754 4.44134C67.2893 4.91997 65.0398 7.51827 63.1312 10.2533C60.4046 14.1507 59.4503 15.108 58.3597 14.8345C57.6099 14.6294 54.6106 14.0824 51.6795 13.6721C46.6353 12.92 40.0234 13.3986 32.7979 14.9029C31.4346 15.1764 30.8211 14.8345 29.7986 12.9884C27.481 9.09092 22.505 4.23621 20.8009 4.23621C16.9155 4.23621 7.71325 18.1166 5.46381 27.4841C4.16868 32.8174 4.37318 43.9627 5.80464 49.0225C9.14471 60.4413 17.938 69.1935 30.8893 73.8431C35.3882 75.4841 36.8196 75.6208 45.4084 75.6892C54.1335 75.6892 55.4286 75.4841 60.4046 73.7747C67.2211 71.3815 73.4241 67.4157 77.7867 62.561C90.1245 49.0225 89.7155 25.9114 76.8324 9.7063C72.947 4.8516 70.493 3.34733 68.1754 4.44134ZM25.2998 19.0738C26.1177 20.7148 27.2765 22.2875 27.8219 22.4926C28.4353 22.6978 31.2301 22.3559 34.093 21.6037C40.9095 19.9627 50.6571 19.9627 57.1327 21.6037C59.8593 22.2875 62.5859 22.6978 63.1312 22.4926C63.6765 22.2191 64.7672 20.7832 65.5852 19.1422C66.4031 17.5012 67.6983 15.3131 68.4481 14.2191L69.8795 12.2362L72.1971 14.9029C74.9237 18.1166 77.9912 24.4755 79.15 29.467C79.6953 31.655 79.8998 35.6892 79.6953 39.7918C79.4226 45.3986 79.0136 47.1764 77.2413 51.0054C67.9709 70.8345 37.4331 75.5525 20.5282 59.826C15.3477 55.0396 12.553 49.6379 11.5986 42.6636C10.3035 33.0909 12.7574 23.2448 18.2106 15.7234L20.8009 12.2362L22.3005 14.1507C23.1185 15.1764 24.4818 17.3644 25.2998 19.0738Z" fill="#2469FF"/>
<path d="M41.7945 49.5011C39.8858 51.8943 44.1121 55.3815 47.4521 54.1507C49.1563 53.5353 50.3151 50.7319 49.4971 49.4327C48.8836 48.4071 42.6806 48.4755 41.7945 49.5011Z" fill="#2469FF"/>
</svg>
