<svg width="229" height="195" viewBox="0 0 229 195" fill="none" xmlns="http://www.w3.org/2000/svg">
<path d="M171.561 10.8258C169.331 11.9924 163.671 18.3258 158.868 24.9924C152.006 34.4924 149.605 36.8258 146.86 36.1591C144.973 35.6591 137.426 34.3258 130.05 33.3258C117.356 31.4924 100.717 32.6591 82.5342 36.3258C79.1035 36.9924 77.5597 36.1591 74.9867 31.6591C69.1545 22.1591 56.6324 10.3258 52.344 10.3258C42.5664 10.3258 19.4091 44.1591 13.7485 66.9924C10.4893 79.9924 11.0039 107.159 14.6061 119.492C23.0114 147.326 45.1395 168.659 77.7312 179.992C89.0526 183.992 92.6548 184.326 114.268 184.492C136.225 184.492 139.484 183.992 152.006 179.826C169.16 173.992 184.769 164.326 195.748 152.492C226.796 119.492 225.766 63.1591 193.346 23.6591C183.569 11.8258 177.393 8.15909 171.561 10.8258ZM63.6653 46.4924C65.7237 50.4924 68.6398 54.3258 70.0121 54.8258C71.5559 55.3258 78.5889 54.4924 85.7934 52.6591C102.947 48.6591 127.477 48.6591 143.772 52.6591C150.634 54.3258 157.495 55.3258 158.868 54.8258C160.24 54.1591 162.984 50.6591 165.043 46.6591C167.101 42.6591 170.36 37.3258 172.247 34.6591L175.85 29.8258L181.682 36.3258C188.543 44.1591 196.262 59.6591 199.178 71.8258C200.551 77.1591 201.065 86.9924 200.551 96.9924C199.865 110.659 198.835 114.992 194.375 124.326C171.047 172.659 94.1986 184.159 51.6578 145.826C38.6211 134.159 31.5882 120.992 29.1867 103.992C25.9275 80.6591 32.1028 56.6591 45.8256 38.3258L52.344 29.8258L56.1177 34.4924C58.1762 36.9924 61.6069 42.3258 63.6653 46.4924Z" fill="black"/>
<path d="M105.177 120.659C100.374 126.492 111.009 134.992 119.415 131.992C123.703 130.492 126.619 123.659 124.561 120.492C123.017 117.992 107.407 118.159 105.177 120.659Z" fill="black"/>
<path d="M84.8987 114.495C98.1168 114.495 108.778 103.746 108.996 90.7868C110.762 90.1538 112.624 89.8313 114.5 89.8336C116.147 89.8336 118.142 90.0927 120.004 90.7868C120.222 103.878 130.883 114.495 144.101 114.495C156.628 114.495 166.856 105.002 168.113 92.9108H173.27C175.22 92.9108 176 91.7401 176 90.1367V88.4893C176 86.842 175.22 85.7153 173.27 85.7153H167.807C165.598 74.7068 155.846 66.2988 144.099 66.2988C132.831 66.2988 123.382 74.0566 120.74 84.5028C118.746 83.7231 116.404 83.4617 114.498 83.4617C112.591 83.4617 110.25 83.7231 108.258 84.5028C105.569 74.0566 96.1225 66.2988 84.8965 66.2988C73.1522 66.2988 63.4001 74.7068 61.1883 85.7153H55.7302C53.7358 85.7153 53 86.842 53 88.4893V90.1367C53 91.7401 53.7358 92.9108 55.7302 92.9108H60.8874C61.5149 98.8397 64.3158 104.326 68.7498 108.312C73.1837 112.298 78.9366 114.5 84.8987 114.495ZM84.8987 107.994C82.5873 107.996 80.2981 107.542 78.1623 106.658C76.0264 105.774 74.0858 104.478 72.4515 102.844C70.8172 101.209 69.5212 99.2684 68.6378 97.1325C67.7544 94.9965 67.3008 92.7073 67.3031 90.3958C67.3031 80.6876 75.1883 72.8025 84.8965 72.8025C94.563 72.8025 102.494 80.6876 102.494 90.3958C102.504 92.7092 102.055 95.0016 101.174 97.1407C100.293 99.2798 98.9973 101.223 97.3615 102.859C95.7258 104.495 93.7824 105.791 91.6434 106.672C89.5044 107.554 87.2121 108.003 84.8987 107.994ZM144.101 107.994C141.788 108.003 139.496 107.554 137.357 106.672C135.218 105.791 133.274 104.495 131.638 102.859C130.003 101.223 128.707 99.2798 127.826 97.1407C126.945 95.0016 126.496 92.7092 126.506 90.3958C126.5 88.0836 126.951 85.7931 127.833 83.6558C128.716 81.5185 130.011 79.5766 131.647 77.9417C133.282 76.3069 135.224 75.0112 137.361 74.1292C139.498 73.2473 141.789 72.7964 144.101 72.8025C153.809 72.8025 161.699 80.6876 161.699 90.3958C161.701 92.7074 161.247 94.9966 160.364 97.1326C159.48 99.2686 158.184 101.209 156.549 102.844C154.915 104.478 152.974 105.775 150.838 106.658C148.702 107.542 146.413 107.996 144.101 107.994Z" fill="black"/>
</svg>
