<svg width="34" height="29" viewBox="0 0 34 29" fill="none" xmlns="http://www.w3.org/2000/svg">
<path d="M25.472 1.60991C25.1409 1.78341 24.3005 2.72529 23.5873 3.71674C22.5686 5.12956 22.2121 5.47657 21.8046 5.37743C21.5244 5.30307 20.4038 5.10478 19.3087 4.95606C17.424 4.68341 14.9536 4.85691 12.254 5.40221C11.7446 5.50136 11.5154 5.37743 11.1334 4.7082C10.2675 3.29538 8.40832 1.53555 7.77161 1.53555C6.31993 1.53555 2.88173 6.56717 2.04128 9.9629C1.55738 11.8962 1.63379 15.9364 2.16862 17.7706C3.41656 21.9099 6.70195 25.0826 11.5409 26.768C13.2218 27.3629 13.7566 27.4125 16.9656 27.4373C20.2255 27.4373 20.7094 27.3629 22.5686 26.7432C25.1154 25.8757 27.433 24.4381 29.063 22.6783C33.6727 17.7706 33.5199 9.39281 28.7064 3.51845C27.2548 1.75862 26.3379 1.21333 25.472 1.60991ZM9.45251 6.91418C9.75813 7.50905 10.1911 8.07914 10.3948 8.1535C10.624 8.22785 11.6682 8.10392 12.7379 7.83127C15.2847 7.2364 18.9267 7.2364 21.3461 7.83127C22.3649 8.07914 23.3836 8.22785 23.5873 8.1535C23.7911 8.05435 24.1986 7.53384 24.5042 6.93897C24.8098 6.34409 25.2937 5.55093 25.5739 5.15435L26.1087 4.43555L26.9746 5.40221C27.9933 6.56717 29.1394 8.8723 29.5724 10.6817C29.7761 11.4749 29.8525 12.9373 29.7761 14.4244C29.6742 16.4569 29.5214 17.1014 28.8593 18.4894C25.3956 25.6774 13.9858 27.3877 7.66974 21.6868C5.73416 19.9518 4.68997 17.9937 4.33341 15.4655C3.84952 11.9954 4.76637 8.42614 6.80382 5.69965L7.77161 4.43555L8.33191 5.12956C8.63753 5.50136 9.14689 6.29452 9.45251 6.91418Z" fill="white"/>
<path d="M15.6157 17.9441C14.9026 18.8116 16.4817 20.0757 17.7296 19.6295C18.3663 19.4064 18.7993 18.3902 18.4937 17.9193C18.2644 17.5475 15.9468 17.5723 15.6157 17.9441Z" fill="white"/>
</svg>
