<svg width="24" height="24" viewBox="0 0 24 24" fill="none" xmlns="http://www.w3.org/2000/svg">
<path fill-rule="evenodd" clip-rule="evenodd" d="M9.163 3.7751C9.22255 3.96473 9.2044 4.17025 9.11252 4.3465C9.02064 4.52275 8.86256 4.65533 8.673 4.7151C6.95513 5.25593 5.45452 6.33056 4.38932 7.78278C3.32412 9.235 2.74985 10.9891 2.75 12.7901C2.74987 13.9012 2.9686 15.0014 3.39369 16.0279C3.81879 17.0544 4.44193 17.9872 5.22752 18.7729C6.01312 19.5586 6.94579 20.1818 7.97227 20.607C8.99875 21.0322 10.0989 21.2511 11.21 21.2511C13.0109 21.2513 14.7649 20.6772 16.2171 19.6122C17.6693 18.5472 18.744 17.0468 19.285 15.3291C19.3119 15.2321 19.3581 15.1416 19.4208 15.0628C19.4834 14.9841 19.5613 14.9187 19.6497 14.8707C19.7382 14.8227 19.8354 14.7929 19.9355 14.7833C20.0357 14.7736 20.1368 14.7842 20.2328 14.8144C20.3288 14.8446 20.4177 14.8938 20.4943 14.9591C20.5709 15.0244 20.6335 15.1044 20.6785 15.1945C20.7235 15.2845 20.7499 15.3826 20.7562 15.4831C20.7625 15.5835 20.7485 15.6842 20.715 15.7791C19.447 19.8191 15.672 22.7511 11.211 22.7511C5.71 22.7511 1.25 18.2911 1.25 12.7911C1.25 8.3291 4.182 4.5551 8.223 3.2851C8.41276 3.22559 8.61839 3.24388 8.79467 3.33596C8.97095 3.42804 9.10343 3.58535 9.163 3.7751Z" fill="black"/>
<path d="M21.913 9.94697C21.3869 8.07277 20.3876 6.36539 19.0111 4.98891C17.6346 3.61242 15.9272 2.6131 14.053 2.08697C12.409 1.62797 11 3.05397 11 4.75997V11.454C11 12.307 11.692 12.999 12.545 12.999H19.239C20.946 12.999 22.372 11.59 21.913 9.94697Z" fill="black"/>
</svg>
