<svg width="61" height="17" viewBox="0 0 61 17" fill="none" xmlns="http://www.w3.org/2000/svg">
<g clip-path="url(#clip0_212_502)">
<path d="M13.8438 11.5V5.5H14.7344V6.40625H14.7969C14.9063 6.10938 15.1042 5.86849 15.3906 5.68359C15.6771 5.4987 16 5.40625 16.3594 5.40625C16.4271 5.40625 16.5117 5.40755 16.6133 5.41016C16.7148 5.41276 16.7917 5.41667 16.8438 5.42188V6.35937C16.8125 6.35156 16.7409 6.33984 16.6289 6.32422C16.5195 6.30599 16.4036 6.29687 16.2813 6.29687C15.9896 6.29687 15.7292 6.35807 15.5 6.48047C15.2734 6.60026 15.0938 6.76693 14.9609 6.98047C14.8307 7.19141 14.7656 7.43229 14.7656 7.70312V11.5H13.8438ZM20.2695 11.625C19.6914 11.625 19.1927 11.4974 18.7734 11.2422C18.3568 10.9844 18.0352 10.625 17.8086 10.1641C17.5846 9.70052 17.4727 9.16146 17.4727 8.54688C17.4727 7.93229 17.5846 7.39062 17.8086 6.92187C18.0352 6.45052 18.3503 6.08333 18.7539 5.82031C19.1602 5.55469 19.6341 5.42188 20.1758 5.42188C20.4883 5.42188 20.7969 5.47396 21.1016 5.57812C21.4063 5.68229 21.6836 5.85156 21.9336 6.08594C22.1836 6.31771 22.3828 6.625 22.5313 7.00781C22.6797 7.39062 22.7539 7.86198 22.7539 8.42187V8.8125H18.1289V8.01562H21.8164C21.8164 7.67708 21.7487 7.375 21.6133 7.10937C21.4805 6.84375 21.2904 6.63411 21.043 6.48047C20.7982 6.32682 20.5091 6.25 20.1758 6.25C19.8086 6.25 19.4909 6.34115 19.2227 6.52344C18.957 6.70312 18.7526 6.9375 18.6094 7.22656C18.4661 7.51562 18.3945 7.82552 18.3945 8.15625V8.6875C18.3945 9.14063 18.4727 9.52474 18.6289 9.83984C18.7878 10.1523 19.0078 10.3906 19.2891 10.5547C19.5703 10.7161 19.8971 10.7969 20.2695 10.7969C20.5117 10.7969 20.7305 10.763 20.9258 10.6953C21.1237 10.625 21.2943 10.5208 21.4375 10.3828C21.5807 10.2422 21.6914 10.0677 21.7695 9.85937L22.6602 10.1094C22.5664 10.4115 22.4089 10.6771 22.1875 10.9062C21.9661 11.1328 21.6927 11.3099 21.3672 11.4375C21.0417 11.5625 20.6758 11.625 20.2695 11.625ZM28.8799 5.5L26.6611 11.5H25.7236L23.5049 5.5H24.5049L26.1611 10.2812H26.2236L27.8799 5.5H28.8799ZM30.0967 11.5V5.5H31.0186V11.5H30.0967ZM30.5654 4.5C30.3857 4.5 30.2308 4.4388 30.1006 4.31641C29.973 4.19401 29.9092 4.04688 29.9092 3.875C29.9092 3.70313 29.973 3.55599 30.1006 3.43359C30.2308 3.3112 30.3857 3.25 30.5654 3.25C30.7451 3.25 30.8988 3.3112 31.0264 3.43359C31.1566 3.55599 31.2217 3.70313 31.2217 3.875C31.2217 4.04688 31.1566 4.19401 31.0264 4.31641C30.8988 4.4388 30.7451 4.5 30.5654 4.5ZM35.2227 11.625C34.6445 11.625 34.1458 11.4974 33.7266 11.2422C33.3099 10.9844 32.9883 10.625 32.7617 10.1641C32.5378 9.70052 32.4258 9.16146 32.4258 8.54688C32.4258 7.93229 32.5378 7.39062 32.7617 6.92187C32.9883 6.45052 33.3034 6.08333 33.707 5.82031C34.1133 5.55469 34.5872 5.42188 35.1289 5.42188C35.4414 5.42188 35.75 5.47396 36.0547 5.57812C36.3594 5.68229 36.6367 5.85156 36.8867 6.08594C37.1367 6.31771 37.3359 6.625 37.4844 7.00781C37.6328 7.39062 37.707 7.86198 37.707 8.42187V8.8125H33.082V8.01562H36.7695C36.7695 7.67708 36.7018 7.375 36.5664 7.10937C36.4336 6.84375 36.2435 6.63411 35.9961 6.48047C35.7513 6.32682 35.4622 6.25 35.1289 6.25C34.7617 6.25 34.444 6.34115 34.1758 6.52344C33.9102 6.70312 33.7057 6.9375 33.5625 7.22656C33.4193 7.51562 33.3477 7.82552 33.3477 8.15625V8.6875C33.3477 9.14063 33.4258 9.52474 33.582 9.83984C33.7409 10.1523 33.9609 10.3906 34.2422 10.5547C34.5234 10.7161 34.8503 10.7969 35.2227 10.7969C35.4648 10.7969 35.6836 10.763 35.8789 10.6953C36.0768 10.625 36.2474 10.5208 36.3906 10.3828C36.5339 10.2422 36.6445 10.0677 36.7227 9.85937L37.6133 10.1094C37.5195 10.4115 37.362 10.6771 37.1406 10.9062C36.9193 11.1328 36.6458 11.3099 36.3203 11.4375C35.9948 11.5625 35.6289 11.625 35.2227 11.625ZM40.4688 11.5L38.6406 5.5H39.6094L40.9063 10.0938H40.9688L42.25 5.5H43.2344L44.5 10.0781H44.5625L45.8594 5.5H46.8281L45 11.5H44.0938L42.7813 6.89062H42.6875L41.375 11.5H40.4688Z" fill="#6248D8"/>
</g>
<rect x="0.5" y="1" width="60" height="15" rx="7.5" stroke="#6248D8"/>
<defs>
<clipPath id="clip0_212_502">
<rect y="0.5" width="61" height="16" rx="8" fill="white"/>
</clipPath>
</defs>
</svg>
