<svg width="61" height="17" viewBox="0 0 61 17" fill="none" xmlns="http://www.w3.org/2000/svg">
<g clip-path="url(#clip0_211_458)">
<path d="M14.2813 6.96484L13.2227 7.15234C13.1784 7.01693 13.1081 6.88802 13.0117 6.76562C12.918 6.64323 12.7904 6.54297 12.6289 6.46484C12.4674 6.38672 12.2656 6.34766 12.0234 6.34766C11.6927 6.34766 11.4167 6.42187 11.1953 6.57031C10.974 6.71615 10.8633 6.90495 10.8633 7.13672C10.8633 7.33724 10.9375 7.4987 11.0859 7.62109C11.2344 7.74349 11.474 7.84375 11.8047 7.92187L12.7578 8.14062C13.3099 8.26823 13.7214 8.46484 13.9922 8.73047C14.263 8.99609 14.3984 9.34115 14.3984 9.76563C14.3984 10.125 14.2943 10.4453 14.0859 10.7266C13.8802 11.0052 13.5924 11.224 13.2227 11.3828C12.8555 11.5417 12.4297 11.6211 11.9453 11.6211C11.2734 11.6211 10.7253 11.4779 10.3008 11.1914C9.8763 10.9023 9.61589 10.4922 9.51953 9.96094L10.6484 9.78906C10.7188 10.0833 10.8633 10.306 11.082 10.457C11.3008 10.6055 11.5859 10.6797 11.9375 10.6797C12.3203 10.6797 12.6263 10.6003 12.8555 10.4414C13.0846 10.2799 13.1992 10.0833 13.1992 9.85156C13.1992 9.66406 13.1289 9.50651 12.9883 9.37891C12.8503 9.2513 12.638 9.15495 12.3516 9.08984L11.3359 8.86719C10.776 8.73958 10.362 8.53646 10.0938 8.25781C9.82813 7.97917 9.69531 7.6263 9.69531 7.19922C9.69531 6.84505 9.79427 6.53516 9.99219 6.26953C10.1901 6.00391 10.4635 5.79687 10.8125 5.64844C11.1615 5.4974 11.5612 5.42188 12.0117 5.42188C12.6602 5.42188 13.1706 5.5625 13.543 5.84375C13.9154 6.1224 14.1615 6.49609 14.2813 6.96484ZM19.4834 9.01172V5.5H20.6553V11.5H19.5068V10.4609H19.4443C19.3063 10.7813 19.085 11.0482 18.7803 11.2617C18.4782 11.4727 18.1019 11.5781 17.6514 11.5781C17.266 11.5781 16.9248 11.4935 16.6279 11.3242C16.3337 11.1523 16.1019 10.8984 15.9326 10.5625C15.766 10.2266 15.6826 9.8112 15.6826 9.31641V5.5H16.8506V9.17578C16.8506 9.58464 16.9639 9.91016 17.1904 10.1523C17.417 10.3945 17.7113 10.5156 18.0732 10.5156C18.292 10.5156 18.5094 10.4609 18.7256 10.3516C18.9443 10.2422 19.1253 10.0768 19.2686 9.85547C19.4144 9.63411 19.486 9.35286 19.4834 9.01172ZM24.7402 13.875C24.2637 13.875 23.8535 13.8125 23.5098 13.6875C23.1686 13.5625 22.89 13.3971 22.6738 13.1914C22.4577 12.9857 22.2962 12.7604 22.1895 12.5156L23.1934 12.1016C23.2637 12.2161 23.3574 12.3372 23.4746 12.4648C23.5944 12.5951 23.7559 12.7057 23.959 12.7969C24.1647 12.888 24.429 12.9336 24.752 12.9336C25.1947 12.9336 25.5605 12.8255 25.8496 12.6094C26.1387 12.3958 26.2832 12.0547 26.2832 11.5859V10.4062H26.209C26.1387 10.5339 26.0371 10.6758 25.9043 10.832C25.7741 10.9883 25.5944 11.1237 25.3652 11.2383C25.1361 11.3529 24.8379 11.4102 24.4707 11.4102C23.9967 11.4102 23.5697 11.2995 23.1895 11.0781C22.8118 10.8542 22.5124 10.5247 22.291 10.0898C22.0723 9.65234 21.9629 9.11458 21.9629 8.47656C21.9629 7.83854 22.071 7.29167 22.2871 6.83594C22.5059 6.38021 22.8053 6.03125 23.1855 5.78906C23.5658 5.54427 23.9967 5.42188 24.4785 5.42188C24.8509 5.42188 25.1517 5.48438 25.3809 5.60937C25.61 5.73177 25.7884 5.875 25.916 6.03906C26.0462 6.20312 26.1465 6.34766 26.2168 6.47266H26.3027V5.5H27.4473V11.6328C27.4473 12.1484 27.3275 12.5716 27.0879 12.9023C26.8483 13.2331 26.5241 13.4779 26.1152 13.6367C25.709 13.7956 25.2507 13.875 24.7402 13.875ZM24.7285 10.4414C25.0645 10.4414 25.3483 10.3633 25.5801 10.207C25.8145 10.0482 25.9915 9.82161 26.1113 9.52734C26.2337 9.23047 26.2949 8.875 26.2949 8.46094C26.2949 8.05729 26.235 7.70182 26.1152 7.39453C25.9954 7.08724 25.8197 6.84766 25.5879 6.67578C25.3561 6.5013 25.0697 6.41406 24.7285 6.41406C24.377 6.41406 24.084 6.50521 23.8496 6.6875C23.6152 6.86719 23.4382 7.11198 23.3184 7.42187C23.2012 7.73177 23.1426 8.07812 23.1426 8.46094C23.1426 8.85417 23.2025 9.19922 23.3223 9.49609C23.4421 9.79297 23.6191 10.0247 23.8535 10.1914C24.0905 10.3581 24.3822 10.4414 24.7285 10.4414ZM31.5293 13.875C31.0527 13.875 30.6426 13.8125 30.2988 13.6875C29.9577 13.5625 29.679 13.3971 29.4629 13.1914C29.2467 12.9857 29.0853 12.7604 28.9785 12.5156L29.9824 12.1016C30.0527 12.2161 30.1465 12.3372 30.2637 12.4648C30.3835 12.5951 30.5449 12.7057 30.748 12.7969C30.9538 12.888 31.2181 12.9336 31.541 12.9336C31.9837 12.9336 32.3496 12.8255 32.6387 12.6094C32.9277 12.3958 33.0723 12.0547 33.0723 11.5859V10.4062H32.998C32.9277 10.5339 32.8262 10.6758 32.6934 10.832C32.5632 10.9883 32.3835 11.1237 32.1543 11.2383C31.9251 11.3529 31.627 11.4102 31.2598 11.4102C30.7858 11.4102 30.3587 11.2995 29.9785 11.0781C29.6009 10.8542 29.3014 10.5247 29.0801 10.0898C28.8613 9.65234 28.752 9.11458 28.752 8.47656C28.752 7.83854 28.86 7.29167 29.0762 6.83594C29.2949 6.38021 29.5944 6.03125 29.9746 5.78906C30.3548 5.54427 30.7858 5.42188 31.2676 5.42188C31.64 5.42188 31.9408 5.48438 32.1699 5.60937C32.3991 5.73177 32.5775 5.875 32.7051 6.03906C32.8353 6.20312 32.9355 6.34766 33.0059 6.47266H33.0918V5.5H34.2363V11.6328C34.2363 12.1484 34.1165 12.5716 33.877 12.9023C33.6374 13.2331 33.3132 13.4779 32.9043 13.6367C32.498 13.7956 32.0397 13.875 31.5293 13.875ZM31.5176 10.4414C31.8535 10.4414 32.1374 10.3633 32.3691 10.207C32.6035 10.0482 32.7806 9.82161 32.9004 9.52734C33.0228 9.23047 33.084 8.875 33.084 8.46094C33.084 8.05729 33.0241 7.70182 32.9043 7.39453C32.7845 7.08724 32.6087 6.84766 32.377 6.67578C32.1452 6.5013 31.8587 6.41406 31.5176 6.41406C31.166 6.41406 30.873 6.50521 30.6387 6.6875C30.4043 6.86719 30.2272 7.11198 30.1074 7.42187C29.9902 7.73177 29.9316 8.07812 29.9316 8.46094C29.9316 8.85417 29.9915 9.19922 30.1113 9.49609C30.2311 9.79297 30.4082 10.0247 30.6426 10.1914C30.8796 10.3581 31.1712 10.4414 31.5176 10.4414ZM38.3887 11.6211C37.7975 11.6211 37.2884 11.4948 36.8613 11.2422C36.4368 10.987 36.1087 10.6289 35.877 10.168C35.6478 9.70443 35.5332 9.16146 35.5332 8.53906C35.5332 7.92448 35.6478 7.38281 35.877 6.91406C36.1087 6.44531 36.4316 6.07943 36.8457 5.81641C37.2624 5.55339 37.7493 5.42188 38.3066 5.42188C38.6452 5.42188 38.9733 5.47786 39.291 5.58984C39.6087 5.70182 39.8939 5.8776 40.1465 6.11719C40.3991 6.35677 40.5983 6.66797 40.7441 7.05078C40.89 7.43099 40.9629 7.89323 40.9629 8.4375V8.85156H36.1934V7.97656H39.8184C39.8184 7.66927 39.7559 7.39714 39.6309 7.16016C39.5059 6.92057 39.3301 6.73177 39.1035 6.59375C38.8796 6.45573 38.6165 6.38672 38.3145 6.38672C37.9863 6.38672 37.6999 6.46745 37.4551 6.62891C37.2129 6.78776 37.0254 6.99609 36.8926 7.25391C36.7624 7.50911 36.6973 7.78646 36.6973 8.08594V8.76953C36.6973 9.17057 36.7676 9.51172 36.9082 9.79297C37.0514 10.0742 37.2507 10.2891 37.5059 10.4375C37.7611 10.5833 38.0592 10.6562 38.4004 10.6562C38.6217 10.6562 38.8236 10.625 39.0059 10.5625C39.1882 10.4974 39.3457 10.401 39.4785 10.2734C39.6113 10.1458 39.7129 9.98828 39.7832 9.80078L40.8887 10C40.8001 10.3255 40.6413 10.6107 40.4121 10.8555C40.1855 11.0977 39.9004 11.2865 39.5566 11.4219C39.2155 11.5547 38.8262 11.6211 38.3887 11.6211ZM46.7549 6.96484L45.6963 7.15234C45.652 7.01693 45.5817 6.88802 45.4854 6.76562C45.3916 6.64323 45.264 6.54297 45.1025 6.46484C44.9411 6.38672 44.7393 6.34766 44.4971 6.34766C44.1663 6.34766 43.8903 6.42187 43.6689 6.57031C43.4476 6.71615 43.3369 6.90495 43.3369 7.13672C43.3369 7.33724 43.4111 7.4987 43.5596 7.62109C43.708 7.74349 43.9476 7.84375 44.2783 7.92187L45.2314 8.14062C45.7835 8.26823 46.195 8.46484 46.4658 8.73047C46.7367 8.99609 46.8721 9.34115 46.8721 9.76563C46.8721 10.125 46.7679 10.4453 46.5596 10.7266C46.3538 11.0052 46.0661 11.224 45.6963 11.3828C45.3291 11.5417 44.9033 11.6211 44.4189 11.6211C43.7471 11.6211 43.1989 11.4779 42.7744 11.1914C42.3499 10.9023 42.0895 10.4922 41.9932 9.96094L43.1221 9.78906C43.1924 10.0833 43.3369 10.306 43.5557 10.457C43.7744 10.6055 44.0596 10.6797 44.4111 10.6797C44.7939 10.6797 45.0999 10.6003 45.3291 10.4414C45.5583 10.2799 45.6729 10.0833 45.6729 9.85156C45.6729 9.66406 45.6025 9.50651 45.4619 9.37891C45.3239 9.2513 45.1117 9.15495 44.8252 9.08984L43.8096 8.86719C43.2497 8.73958 42.8356 8.53646 42.5674 8.25781C42.3018 7.97917 42.1689 7.6263 42.1689 7.19922C42.1689 6.84505 42.2679 6.53516 42.4658 6.26953C42.6637 6.00391 42.9372 5.79687 43.2861 5.64844C43.6351 5.4974 44.0348 5.42188 44.4854 5.42188C45.1338 5.42188 45.6442 5.5625 46.0166 5.84375C46.389 6.1224 46.6351 6.49609 46.7549 6.96484ZM50.957 5.5V6.4375H47.6797V5.5H50.957ZM48.5586 4.0625H49.7266V9.73828C49.7266 9.96484 49.7604 10.1354 49.8281 10.25C49.8958 10.362 49.9831 10.4388 50.0898 10.4805C50.1992 10.5195 50.3177 10.5391 50.4453 10.5391C50.5391 10.5391 50.6211 10.5326 50.6914 10.5195C50.7617 10.5065 50.8164 10.4961 50.8555 10.4883L51.0664 11.4531C50.9987 11.4792 50.9023 11.5052 50.7773 11.5313C50.6523 11.5599 50.4961 11.5755 50.3086 11.5781C50.0013 11.5833 49.7148 11.5286 49.4492 11.4141C49.1836 11.2995 48.9688 11.1224 48.8047 10.8828C48.6406 10.6432 48.5586 10.3424 48.5586 9.98047V4.0625Z" fill="#FF9D00"/>
</g>
<rect x="0.5" y="1" width="60" height="15" rx="7.5" stroke="#FF9D00"/>
<defs>
<clipPath id="clip0_211_458">
<rect y="0.5" width="61" height="16" rx="8" fill="white"/>
</clipPath>
</defs>
</svg>
