<svg width="20" height="20" viewBox="0 0 20 20" fill="none" xmlns="http://www.w3.org/2000/svg">
<path d="M5.00016 18.3334H15.0002C15.4422 18.3334 15.8661 18.1578 16.1787 17.8453C16.4912 17.5327 16.6668 17.1088 16.6668 16.6667V7.50008L12.5002 5.83341L10.8335 1.66675H5.00016C4.55814 1.66675 4.13421 1.84234 3.82165 2.1549C3.50909 2.46746 3.3335 2.89139 3.3335 3.33341V16.6667C3.3335 17.1088 3.50909 17.5327 3.82165 17.8453C4.13421 18.1578 4.55814 18.3334 5.00016 18.3334Z" fill="url(#paint0_linear_707_125)"/>
<path d="M5.00016 18.3334H15.0002C15.4422 18.3334 15.8661 18.1578 16.1787 17.8453C16.4912 17.5327 16.6668 17.1088 16.6668 16.6667V7.50008L12.5002 5.83341L10.8335 1.66675H5.00016C4.55814 1.66675 4.13421 1.84234 3.82165 2.1549C3.50909 2.46746 3.3335 2.89139 3.3335 3.33341V16.6667C3.3335 17.1088 3.50909 17.5327 3.82165 17.8453C4.13421 18.1578 4.55814 18.3334 5.00016 18.3334Z" fill="url(#paint1_radial_707_125)" fill-opacity="0.5"/>
<path d="M10.8335 6.25008V1.66675L16.6668 7.50008H12.0835C11.752 7.50008 11.434 7.36839 11.1996 7.13397C10.9652 6.89954 10.8335 6.5816 10.8335 6.25008Z" fill="url(#paint2_linear_707_125)"/>
<path d="M7.29199 9.5835C7.12623 9.5835 6.96726 9.64934 6.85005 9.76655C6.73284 9.88376 6.66699 10.0427 6.66699 10.2085C6.66699 10.3743 6.73284 10.5332 6.85005 10.6504C6.96726 10.7676 7.12623 10.8335 7.29199 10.8335H12.7087C12.8744 10.8335 13.0334 10.7676 13.1506 10.6504C13.2678 10.5332 13.3337 10.3743 13.3337 10.2085C13.3337 10.0427 13.2678 9.88376 13.1506 9.76655C13.0334 9.64934 12.8744 9.5835 12.7087 9.5835H7.29199ZM7.29199 11.8752C7.12623 11.8752 6.96726 11.941 6.85005 12.0582C6.73284 12.1754 6.66699 12.3344 6.66699 12.5002C6.66699 12.6659 6.73284 12.8249 6.85005 12.9421C6.96726 13.0593 7.12623 13.1252 7.29199 13.1252H12.7087C12.8744 13.1252 13.0334 13.0593 13.1506 12.9421C13.2678 12.8249 13.3337 12.6659 13.3337 12.5002C13.3337 12.3344 13.2678 12.1754 13.1506 12.0582C13.0334 11.941 12.8744 11.8752 12.7087 11.8752H7.29199ZM7.29199 14.1668C7.12623 14.1668 6.96726 14.2327 6.85005 14.3499C6.73284 14.4671 6.66699 14.6261 6.66699 14.7918C6.66699 14.9576 6.73284 15.1166 6.85005 15.2338C6.96726 15.351 7.12623 15.4168 7.29199 15.4168H12.7087C12.8744 15.4168 13.0334 15.351 13.1506 15.2338C13.2678 15.1166 13.3337 14.9576 13.3337 14.7918C13.3337 14.6261 13.2678 14.4671 13.1506 14.3499C13.0334 14.2327 12.8744 14.1668 12.7087 14.1668H7.29199Z" fill="url(#paint3_linear_707_125)" fill-opacity="0.9"/>
<defs>
<linearGradient id="paint0_linear_707_125" x1="12.6668" y1="1.66675" x2="14.0185" y2="15.7251" gradientUnits="userSpaceOnUse">
<stop stop-color="#6CE0FF"/>
<stop offset="1" stop-color="#4894FE"/>
</linearGradient>
<radialGradient id="paint1_radial_707_125" cx="0" cy="0" r="1" gradientUnits="userSpaceOnUse" gradientTransform="translate(17.2227 2.18758) rotate(133.623) scale(10.4683 6.1808)">
<stop offset="0.362" stop-color="#4A43CB"/>
<stop offset="1" stop-color="#4A43CB" stop-opacity="0"/>
</radialGradient>
<linearGradient id="paint2_linear_707_125" x1="13.7402" y1="4.09758" x2="12.2818" y2="6.52758" gradientUnits="userSpaceOnUse">
<stop stop-color="#9FF0F9"/>
<stop offset="1" stop-color="#B3E0FF"/>
</linearGradient>
<linearGradient id="paint3_linear_707_125" x1="13.3337" y1="17.7502" x2="6.83033" y2="7.15016" gradientUnits="userSpaceOnUse">
<stop stop-color="#9DEAFF"/>
<stop offset="1" stop-color="white"/>
</linearGradient>
</defs>
</svg>
