<svg width="200" height="200" viewBox="0 0 200 200" fill="none" xmlns="http://www.w3.org/2000/svg">
<rect width="200" height="200" rx="100" fill="black"/>
<path d="M134.579 46.6619C133.246 47.3798 129.861 51.2773 126.989 55.3798C122.887 61.226 121.451 62.6619 119.81 62.2516C118.682 61.9439 114.169 61.1234 109.759 60.508C102.169 59.3798 92.2202 60.0978 81.3484 62.3542C79.2972 62.7645 78.3741 62.2516 76.8356 59.4824C73.3484 53.6362 65.8613 46.3542 63.2972 46.3542C57.451 46.3542 43.6049 67.1747 40.2202 81.226C38.2715 89.226 38.5792 105.944 40.7331 113.534C45.7587 130.662 58.9895 143.79 78.4767 150.764C85.2459 153.226 87.3997 153.431 100.323 153.534C113.451 153.534 115.4 153.226 122.887 150.662C133.143 147.072 142.477 141.123 149.041 133.841C167.605 113.534 166.989 78.867 147.605 54.5593C141.759 47.2773 138.066 45.0209 134.579 46.6619ZM70.0664 68.6106C71.2972 71.0721 73.0408 73.4311 73.8613 73.7388C74.7843 74.0465 78.9895 73.5337 83.2972 72.4055C93.5536 69.9439 108.22 69.9439 117.964 72.4055C122.066 73.4311 126.169 74.0465 126.989 73.7388C127.81 73.3286 129.451 71.1747 130.682 68.7132C131.913 66.2516 133.861 62.9696 134.989 61.3286L137.143 58.3542L140.631 62.3542C144.733 67.1747 149.348 76.7132 151.092 84.2004C151.913 87.4824 152.22 93.5337 151.913 99.6875C151.502 108.098 150.887 110.764 148.22 116.508C134.272 146.252 88.3228 153.329 62.8869 129.739C55.092 122.559 50.8869 114.457 49.451 103.995C47.5023 89.6363 51.1946 74.867 59.3997 63.585L63.2972 58.3542L65.5536 61.226C66.7843 62.7645 68.8356 66.0465 70.0664 68.6106Z" fill="white"/>
<path d="M94.8873 114.252C92.0155 117.841 98.3744 123.072 103.4 121.226C105.964 120.303 107.708 116.098 106.477 114.149C105.554 112.611 96.2206 112.713 94.8873 114.252Z" fill="white"/>
</svg>
